<mxfile host="app.diagrams.net" modified="2022-07-28T11:37:16.279Z" agent="5.0 (Windows NT 10.0; Win64; x64) AppleWebKit/537.36 (KHTML, like Gecko) Chrome/103.0.0.0 Safari/537.36" etag="QRpj0Yh9zb1l6uVla1yA" version="20.2.2" type="github">
  <diagram id="siXkpZctMQvOiU2A_Klu" name="Page-1">
    <mxGraphModel dx="1038" dy="539" grid="1" gridSize="10" guides="1" tooltips="1" connect="1" arrows="1" fold="1" page="1" pageScale="1" pageWidth="850" pageHeight="1100" math="0" shadow="0">
      <root>
        <mxCell id="0" />
        <mxCell id="1" parent="0" />
        <mxCell id="yrAHN9wm4sUA_AutfH4l-72" value="What did we do" style="swimlane;fontSize=9;" vertex="1" parent="1">
          <mxGeometry x="80" y="40" width="440" height="680" as="geometry" />
        </mxCell>
        <mxCell id="yrAHN9wm4sUA_AutfH4l-74" value="* : generated by the creation of Hosted Zone  " style="text;strokeColor=none;fillColor=none;align=left;verticalAlign=top;spacingLeft=4;spacingRight=4;overflow=hidden;rotatable=0;points=[[0,0.5],[1,0.5]];portConstraint=eastwest;fontSize=9;" vertex="1" parent="yrAHN9wm4sUA_AutfH4l-72">
          <mxGeometry x="240" y="650" width="190" height="26" as="geometry" />
        </mxCell>
        <mxCell id="yrAHN9wm4sUA_AutfH4l-53" value="&lt;b&gt;Holly&#39;s DNS Hosted Zone&lt;/b&gt;&lt;br&gt;jiangrendevops.com" style="rounded=0;whiteSpace=wrap;html=1;" vertex="1" parent="1">
          <mxGeometry x="640" y="80" width="110" height="110" as="geometry" />
        </mxCell>
        <mxCell id="yrAHN9wm4sUA_AutfH4l-54" value="Amazon Cloudfront" style="sketch=0;outlineConnect=0;fontColor=#232F3E;gradientColor=none;strokeColor=#ffffff;fillColor=#232F3E;dashed=0;verticalLabelPosition=middle;verticalAlign=bottom;align=center;html=1;whiteSpace=wrap;fontSize=10;fontStyle=1;spacing=3;shape=mxgraph.aws4.productIcon;prIcon=mxgraph.aws4.cloudfront;" vertex="1" parent="1">
          <mxGeometry x="120" y="80" width="80" height="110" as="geometry" />
        </mxCell>
        <mxCell id="yrAHN9wm4sUA_AutfH4l-55" value="Amazon Route 53" style="sketch=0;outlineConnect=0;fontColor=#232F3E;gradientColor=none;strokeColor=#ffffff;fillColor=#232F3E;dashed=0;verticalLabelPosition=middle;verticalAlign=bottom;align=center;html=1;whiteSpace=wrap;fontSize=10;fontStyle=1;spacing=3;shape=mxgraph.aws4.productIcon;prIcon=mxgraph.aws4.route_53;" vertex="1" parent="1">
          <mxGeometry x="120" y="560" width="80" height="110" as="geometry" />
        </mxCell>
        <mxCell id="yrAHN9wm4sUA_AutfH4l-56" value="AWS Certificate Manager" style="sketch=0;outlineConnect=0;fontColor=#232F3E;gradientColor=none;strokeColor=#ffffff;fillColor=#232F3E;dashed=0;verticalLabelPosition=middle;verticalAlign=bottom;align=center;html=1;whiteSpace=wrap;fontSize=10;fontStyle=1;spacing=3;shape=mxgraph.aws4.productIcon;prIcon=mxgraph.aws4.certificate_manager_3;" vertex="1" parent="1">
          <mxGeometry x="120" y="320" width="80" height="110" as="geometry" />
        </mxCell>
        <mxCell id="yrAHN9wm4sUA_AutfH4l-57" style="edgeStyle=orthogonalEdgeStyle;rounded=0;orthogonalLoop=1;jettySize=auto;html=1;entryX=0.5;entryY=0;entryDx=0;entryDy=0;fontSize=14;" edge="1" parent="1" source="yrAHN9wm4sUA_AutfH4l-59" target="yrAHN9wm4sUA_AutfH4l-63">
          <mxGeometry relative="1" as="geometry" />
        </mxCell>
        <mxCell id="yrAHN9wm4sUA_AutfH4l-58" style="edgeStyle=orthogonalEdgeStyle;rounded=0;orthogonalLoop=1;jettySize=auto;html=1;fontSize=9;" edge="1" parent="1" source="yrAHN9wm4sUA_AutfH4l-59" target="yrAHN9wm4sUA_AutfH4l-53">
          <mxGeometry relative="1" as="geometry" />
        </mxCell>
        <mxCell id="yrAHN9wm4sUA_AutfH4l-59" value="&lt;b&gt;CDN Distribution domain name&lt;/b&gt;&lt;br&gt;d38iyhd1p7g9wx.cloudfront.net&lt;br&gt;&lt;b&gt;Alternative domain name&lt;br&gt;&lt;/b&gt;arnoxu.jiangrendevops.com" style="rounded=0;whiteSpace=wrap;html=1;" vertex="1" parent="1">
          <mxGeometry x="200" y="80" width="200" height="110" as="geometry" />
        </mxCell>
        <mxCell id="yrAHN9wm4sUA_AutfH4l-60" style="edgeStyle=orthogonalEdgeStyle;rounded=0;orthogonalLoop=1;jettySize=auto;html=1;exitX=1;exitY=0.25;exitDx=0;exitDy=0;entryX=1;entryY=0.75;entryDx=0;entryDy=0;fontSize=9;" edge="1" parent="1" source="yrAHN9wm4sUA_AutfH4l-61" target="yrAHN9wm4sUA_AutfH4l-59">
          <mxGeometry relative="1" as="geometry">
            <Array as="points">
              <mxPoint x="460" y="588" />
              <mxPoint x="460" y="163" />
            </Array>
          </mxGeometry>
        </mxCell>
        <mxCell id="yrAHN9wm4sUA_AutfH4l-61" value="&lt;b&gt;DNS Hosted Zone&lt;/b&gt;&lt;br&gt;Type A record&lt;br&gt;Type NS record*&lt;br&gt;Type SOA record*&lt;br&gt;Type CNAME record" style="rounded=0;whiteSpace=wrap;html=1;" vertex="1" parent="1">
          <mxGeometry x="200" y="560" width="200" height="110" as="geometry" />
        </mxCell>
        <mxCell id="yrAHN9wm4sUA_AutfH4l-62" style="edgeStyle=orthogonalEdgeStyle;rounded=0;orthogonalLoop=1;jettySize=auto;html=1;entryX=0.5;entryY=0;entryDx=0;entryDy=0;fontSize=14;startArrow=none;" edge="1" parent="1" source="yrAHN9wm4sUA_AutfH4l-69" target="yrAHN9wm4sUA_AutfH4l-61">
          <mxGeometry relative="1" as="geometry" />
        </mxCell>
        <mxCell id="yrAHN9wm4sUA_AutfH4l-63" value="&lt;b&gt;Certificates&lt;/b&gt;&lt;br&gt;SSL certificate" style="rounded=0;whiteSpace=wrap;html=1;" vertex="1" parent="1">
          <mxGeometry x="200" y="320" width="200" height="110" as="geometry" />
        </mxCell>
        <mxCell id="yrAHN9wm4sUA_AutfH4l-64" value="Type A record" style="ellipse;whiteSpace=wrap;html=1;fontSize=14;rotation=90;" vertex="1" parent="1">
          <mxGeometry x="400" y="335" width="120" height="80" as="geometry" />
        </mxCell>
        <mxCell id="yrAHN9wm4sUA_AutfH4l-65" style="edgeStyle=orthogonalEdgeStyle;rounded=0;orthogonalLoop=1;jettySize=auto;html=1;fontSize=9;" edge="1" parent="1" source="yrAHN9wm4sUA_AutfH4l-66" target="yrAHN9wm4sUA_AutfH4l-61">
          <mxGeometry relative="1" as="geometry" />
        </mxCell>
        <mxCell id="yrAHN9wm4sUA_AutfH4l-66" value="&lt;b&gt;User&lt;/b&gt;" style="rounded=0;whiteSpace=wrap;html=1;" vertex="1" parent="1">
          <mxGeometry x="640" y="560" width="110" height="110" as="geometry" />
        </mxCell>
        <mxCell id="yrAHN9wm4sUA_AutfH4l-67" value="&lt;font style=&quot;font-size: 9px;&quot;&gt;arnoxu.jiangrendevops.com&lt;/font&gt;" style="ellipse;whiteSpace=wrap;html=1;fontSize=14;" vertex="1" parent="1">
          <mxGeometry x="460" y="575" width="120" height="80" as="geometry" />
        </mxCell>
        <mxCell id="yrAHN9wm4sUA_AutfH4l-68" value="Associate a&lt;br&gt;certificate" style="ellipse;whiteSpace=wrap;html=1;fontSize=14;" vertex="1" parent="1">
          <mxGeometry x="240" y="210" width="120" height="80" as="geometry" />
        </mxCell>
        <mxCell id="yrAHN9wm4sUA_AutfH4l-69" value="Type CNAME record" style="ellipse;whiteSpace=wrap;html=1;fontSize=14;" vertex="1" parent="1">
          <mxGeometry x="240" y="450" width="120" height="80" as="geometry" />
        </mxCell>
        <mxCell id="yrAHN9wm4sUA_AutfH4l-70" value="" style="edgeStyle=orthogonalEdgeStyle;rounded=0;orthogonalLoop=1;jettySize=auto;html=1;entryX=0.5;entryY=0;entryDx=0;entryDy=0;fontSize=14;endArrow=none;" edge="1" parent="1" source="yrAHN9wm4sUA_AutfH4l-63" target="yrAHN9wm4sUA_AutfH4l-69">
          <mxGeometry relative="1" as="geometry">
            <mxPoint x="300" y="430" as="sourcePoint" />
            <mxPoint x="300" y="580" as="targetPoint" />
          </mxGeometry>
        </mxCell>
        <mxCell id="yrAHN9wm4sUA_AutfH4l-78" style="edgeStyle=orthogonalEdgeStyle;rounded=0;orthogonalLoop=1;jettySize=auto;html=1;entryX=0.5;entryY=1;entryDx=0;entryDy=0;fontSize=9;" edge="1" parent="1" source="yrAHN9wm4sUA_AutfH4l-75" target="yrAHN9wm4sUA_AutfH4l-53">
          <mxGeometry relative="1" as="geometry" />
        </mxCell>
        <mxCell id="yrAHN9wm4sUA_AutfH4l-75" value="&lt;b&gt;Original Server&lt;/b&gt;&lt;br&gt;jiangren.com" style="rounded=0;whiteSpace=wrap;html=1;" vertex="1" parent="1">
          <mxGeometry x="640" y="320" width="110" height="110" as="geometry" />
        </mxCell>
        <mxCell id="yrAHN9wm4sUA_AutfH4l-77" value="Amazon Route 53" style="sketch=0;outlineConnect=0;fontColor=#232F3E;gradientColor=none;strokeColor=#ffffff;fillColor=#232F3E;dashed=0;verticalLabelPosition=middle;verticalAlign=bottom;align=center;html=1;whiteSpace=wrap;fontSize=10;fontStyle=1;spacing=3;shape=mxgraph.aws4.productIcon;prIcon=mxgraph.aws4.route_53;" vertex="1" parent="1">
          <mxGeometry x="750" y="80" width="80" height="110" as="geometry" />
        </mxCell>
        <mxCell id="yrAHN9wm4sUA_AutfH4l-79" value="&lt;b&gt;S3&lt;/b&gt;&lt;br&gt;Static Contents" style="ellipse;whiteSpace=wrap;html=1;fontSize=14;" vertex="1" parent="1">
          <mxGeometry x="635" y="220" width="120" height="80" as="geometry" />
        </mxCell>
      </root>
    </mxGraphModel>
  </diagram>
</mxfile>
